<svg xmlns="http://www.w3.org/2000/svg" xmlns:xlink="http://www.w3.org/1999/xlink" version="1.1" width="426px" height="426px" style="shape-rendering:geometricPrecision; text-rendering:geometricPrecision; image-rendering:optimizeQuality; fill-rule:evenodd; clip-rule:evenodd">
<g><path style="opacity:1" fill="#20213e" d="M -0.5,-0.5 C 141.5,-0.5 283.5,-0.5 425.5,-0.5C 425.5,141.5 425.5,283.5 425.5,425.5C 283.5,425.5 141.5,425.5 -0.5,425.5C -0.5,283.5 -0.5,141.5 -0.5,-0.5 Z"/></g>
<g><path style="opacity:1" fill="#f2bd26" d="M 308.5,103.5 C 308.826,139.573 308.493,175.573 307.5,211.5C 276.945,229.029 246.445,246.696 216,264.5C 184.807,247.486 153.974,229.82 123.5,211.5C 122.333,175.171 122.167,138.838 123,102.5C 153.589,84.4541 184.422,66.7874 215.5,49.5C 247.022,66.7556 278.022,84.7556 308.5,103.5 Z"/></g>
<g><path style="opacity:1" fill="#21213d" d="M 213.5,57.5 C 216.425,57.4598 219.091,58.2932 221.5,60C 248.33,75.2475 274.997,90.7475 301.5,106.5C 302.667,139.828 302.833,173.162 302,206.5C 273.587,223.873 244.587,240.207 215,255.5C 185.444,240.398 156.777,224.065 129,206.5C 128.167,173.162 128.333,139.828 129.5,106.5C 157.539,90.1037 185.539,73.7704 213.5,57.5 Z"/></g>
<g><path style="opacity:1" fill="#f5bf25" d="M 221.5,121.5 C 225.226,121.177 228.893,121.511 232.5,122.5C 225.482,145.051 218.982,167.717 213,190.5C 209.506,192.377 205.673,193.044 201.5,192.5C 208.01,168.796 214.676,145.129 221.5,121.5 Z"/></g>
<g><path style="opacity:1" fill="#f0bb26" d="M 197.5,138.5 C 198.5,138.5 199.5,138.5 200.5,138.5C 200.824,142.555 200.491,146.555 199.5,150.5C 193.372,152.983 187.372,155.649 181.5,158.5C 187.136,161.816 193.136,164.316 199.5,166C 200.46,169.73 200.793,173.563 200.5,177.5C 189.991,174.168 179.825,169.834 170,164.5C 169.201,159.913 169.368,155.413 170.5,151C 177.375,148.775 184.042,146.109 190.5,143C 193.239,141.974 195.572,140.474 197.5,138.5 Z"/></g>
<g><path style="opacity:1" fill="#f2bd26" d="M 233.5,139.5 C 243.706,143.901 254.039,147.901 264.5,151.5C 264.666,155.846 264.499,160.179 264,164.5C 254.098,169.119 244.098,173.453 234,177.5C 233.501,173.514 233.334,169.514 233.5,165.5C 239.596,164.054 245.263,161.554 250.5,158C 244.925,155.629 239.425,153.129 234,150.5C 233.501,146.848 233.335,143.182 233.5,139.5 Z"/></g>
<g><path style="opacity:1" fill="#a6842f" d="M 308.5,103.5 C 309.167,121.33 309.5,139.33 309.5,157.5C 309.5,175.846 308.833,193.846 307.5,211.5C 308.493,175.573 308.826,139.573 308.5,103.5 Z"/></g>
<g><path style="opacity:1" fill="#b08a30" d="M 182.5,266.5 C 173.833,266.5 165.167,266.5 156.5,266.5C 165.162,263.884 173.828,263.884 182.5,266.5 Z"/></g>
<g><path style="opacity:1" fill="#847661" d="M 272.5,265.5 C 279.224,264.196 285.891,264.529 292.5,266.5C 289.833,266.5 287.167,266.5 284.5,266.5C 280.702,265.517 276.702,265.183 272.5,265.5 Z"/></g>
<g><path style="opacity:1" fill="#f6c025" d="M 156.5,266.5 C 165.167,266.5 173.833,266.5 182.5,266.5C 188.72,268.055 194.72,270.222 200.5,273C 204.059,275.606 207.393,278.44 210.5,281.5C 208.451,284.55 205.784,286.883 202.5,288.5C 198.309,284.62 193.642,281.62 188.5,279.5C 184.924,277.272 180.924,276.272 176.5,276.5C 171.35,275.349 166.016,275.183 160.5,276C 157.334,276.322 154.667,277.489 152.5,279.5C 138.161,284.677 128.661,294.677 124,309.5C 123.502,312.817 123.335,316.15 123.5,319.5C 119.5,319.5 115.5,319.5 111.5,319.5C 113.25,293.242 126.583,275.742 151.5,267C 153.134,266.506 154.801,266.34 156.5,266.5 Z"/></g>
<g><path style="opacity:1" fill="#f5cf67" d="M 272.5,265.5 C 276.702,265.183 280.702,265.517 284.5,266.5C 282.396,266.201 280.396,266.534 278.5,267.5C 278.782,269.987 278.782,272.653 278.5,275.5C 275.391,275.264 272.391,275.597 269.5,276.5C 269.5,273.5 269.5,270.5 269.5,267.5C 266.14,267.616 262.807,267.949 259.5,268.5C 263.445,266.374 267.778,265.374 272.5,265.5 Z"/></g>
<g><path style="opacity:1" fill="#fee18e" d="M 284.5,266.5 C 287.167,266.5 289.833,266.5 292.5,266.5C 295.904,267.198 297.237,269.365 296.5,273C 296.431,274.986 295.765,276.486 294.5,277.5C 291.904,276.735 289.237,276.401 286.5,276.5C 284.052,275.527 281.385,275.194 278.5,275.5C 278.782,272.653 278.782,269.987 278.5,267.5C 280.396,266.534 282.396,266.201 284.5,266.5 Z"/></g>
<g><path style="opacity:1" fill="#f1e1b5" d="M 292.5,266.5 C 296.915,266.861 300.915,268.194 304.5,270.5C 304.815,274.371 304.482,278.038 303.5,281.5C 300.053,280.917 297.053,279.584 294.5,277.5C 295.765,276.486 296.431,274.986 296.5,273C 297.237,269.365 295.904,267.198 292.5,266.5 Z"/></g>
<g><path style="opacity:1" fill="#f8c229" d="M 269.5,276.5 C 268.508,276.328 267.842,276.662 267.5,277.5C 246.474,283.539 234.807,297.539 232.5,319.5C 228.833,319.5 225.167,319.5 221.5,319.5C 222.783,293.9 235.449,276.9 259.5,268.5C 262.807,267.949 266.14,267.616 269.5,267.5C 269.5,270.5 269.5,273.5 269.5,276.5 Z"/></g>
<g><path style="opacity:1" fill="#f3ead2" d="M 304.5,270.5 C 310.584,272.535 315.584,276.035 319.5,281C 317.697,283.804 315.53,286.304 313,288.5C 309.516,286.517 306.349,284.184 303.5,281.5C 304.482,278.038 304.815,274.371 304.5,270.5 Z"/></g>
<g><path style="opacity:1" fill="#806734" d="M 176.5,276.5 C 168.309,276.194 160.309,277.194 152.5,279.5C 154.667,277.489 157.334,276.322 160.5,276C 166.016,275.183 171.35,275.349 176.5,276.5 Z"/></g>
<g><path style="opacity:1" fill="#847355" d="M 278.5,275.5 C 281.385,275.194 284.052,275.527 286.5,276.5C 280.137,276.407 273.804,276.74 267.5,277.5C 267.842,276.662 268.508,276.328 269.5,276.5C 272.391,275.597 275.391,275.264 278.5,275.5 Z"/></g>
<g><path style="opacity:1" fill="#6e5936" d="M 176.5,276.5 C 180.924,276.272 184.924,277.272 188.5,279.5C 184.313,278.787 180.313,277.787 176.5,276.5 Z"/></g>
<g><path style="opacity:1" fill="#947632" d="M 111.5,326.5 C 115.298,325.517 119.298,325.183 123.5,325.5C 123.5,326.833 123.5,328.167 123.5,329.5C 122.596,328.791 122.263,327.791 122.5,326.5C 118.833,326.5 115.167,326.5 111.5,326.5 Z"/></g>
<g><path style="opacity:1" fill="#685536" d="M 232.5,326.5 C 228.351,325.92 224.684,326.586 221.5,328.5C 220.596,327.791 220.263,326.791 220.5,325.5C 224.702,325.183 228.702,325.517 232.5,326.5 Z"/></g>
<g><path style="opacity:1" fill="#f8c124" d="M 111.5,326.5 C 115.167,326.5 118.833,326.5 122.5,326.5C 122.263,327.791 122.596,328.791 123.5,329.5C 126.7,347.697 137.034,359.697 154.5,365.5C 155.681,367.067 157.347,367.901 159.5,368C 166.5,368.667 173.5,368.667 180.5,368C 181.416,367.722 182.082,367.222 182.5,366.5C 190.393,364.465 197.227,360.465 203,354.5C 205,356.5 207,358.5 209,360.5C 208.912,363.642 207.412,366.142 204.5,368C 198.792,371.69 192.792,374.523 186.5,376.5C 177.241,378.064 167.908,378.731 158.5,378.5C 136.068,373.575 120.901,360.242 113,338.5C 111.985,334.56 111.485,330.56 111.5,326.5 Z"/></g>
<g><path style="opacity:1" fill="#f7c126" d="M 232.5,326.5 C 234.879,343.218 243.546,355.551 258.5,363.5C 259.014,365.617 259.347,367.784 259.5,370C 259.431,371.986 258.765,373.486 257.5,374.5C 236.168,366.498 224.168,351.165 221.5,328.5C 224.684,326.586 228.351,325.92 232.5,326.5 Z"/></g>
<g><path style="opacity:1" fill="#f3ecdb" d="M 308.5,371.5 C 309.08,367.351 308.414,363.684 306.5,360.5C 308.771,358.734 310.937,356.734 313,354.5C 315.553,356.716 317.72,359.216 319.5,362C 316.908,366.426 313.242,369.593 308.5,371.5 Z"/></g>
<g><path style="opacity:1" fill="#f6e4b4" d="M 306.5,360.5 C 308.414,363.684 309.08,367.351 308.5,371.5C 304.427,373.21 300.427,374.877 296.5,376.5C 293.193,377.051 289.86,377.384 286.5,377.5C 286.5,374.5 286.5,371.5 286.5,368.5C 281.968,368.818 277.634,368.485 273.5,367.5C 285.345,368.865 296.345,366.532 306.5,360.5 Z"/></g>
<g><path style="opacity:1" fill="#ac8730" d="M 154.5,365.5 C 163.74,367.754 173.073,368.087 182.5,366.5C 182.082,367.222 181.416,367.722 180.5,368C 173.5,368.667 166.5,368.667 159.5,368C 157.347,367.901 155.681,367.067 154.5,365.5 Z"/></g>
<g><path style="opacity:1" fill="#f5c94f" d="M 258.5,363.5 C 261.285,365.095 264.285,366.095 267.5,366.5C 269.436,368.115 270.436,370.282 270.5,373C 270.431,374.986 269.765,376.486 268.5,377.5C 264.466,377.483 260.799,376.483 257.5,374.5C 258.765,373.486 259.431,371.986 259.5,370C 259.347,367.784 259.014,365.617 258.5,363.5 Z"/></g>
<g><path style="opacity:1" fill="#fad97e" d="M 267.5,366.5 C 269.435,367.15 271.435,367.483 273.5,367.5C 277.634,368.485 281.968,368.818 286.5,368.5C 286.5,371.5 286.5,374.5 286.5,377.5C 280.591,378.455 274.591,378.789 268.5,378.5C 268.5,378.167 268.5,377.833 268.5,377.5C 269.765,376.486 270.431,374.986 270.5,373C 270.436,370.282 269.436,368.115 267.5,366.5 Z"/></g>
<g><path style="opacity:1" fill="#4d4139" d="M 186.5,376.5 C 184.438,377.776 182.104,378.61 179.5,379C 172.321,379.821 165.321,379.655 158.5,378.5C 167.908,378.731 177.241,378.064 186.5,376.5 Z"/></g>
<g><path style="opacity:1" fill="#4e484d" d="M 296.5,376.5 C 294.123,377.887 291.457,378.721 288.5,379C 281.654,379.821 274.987,379.654 268.5,378.5C 274.591,378.789 280.591,378.455 286.5,377.5C 289.86,377.384 293.193,377.051 296.5,376.5 Z"/></g>
</svg>